<?xml version="1.0" encoding="UTF-8"?>
<svg width="512" height="512" viewBox="0 0 512 512" fill="none" xmlns="http://www.w3.org/2000/svg">
  <circle cx="256" cy="256" r="240" fill="#10B981" opacity="0.1"/>
  <path d="M256 96C167.634 96 96 167.634 96 256C96 344.366 167.634 416 256 416C344.366 416 416 344.366 416 256C416 167.634 344.366 96 256 96ZM256 384C185.309 384 128 326.691 128 256C128 185.309 185.309 128 256 128C326.691 128 384 185.309 384 256C384 326.691 326.691 384 256 384Z" fill="#047857"/>
  <path d="M256 160C207.399 160 168 199.399 168 248C168 296.601 207.399 336 256 336C304.601 336 344 296.601 344 248C344 199.399 304.601 160 256 160ZM256 304C225.072 304 200 278.928 200 248C200 217.072 225.072 192 256 192C286.928 192 312 217.072 312 248C312 278.928 286.928 304 256 304Z" fill="#059669"/>
  <circle cx="256" cy="248" r="32" fill="#10B981"/>
</svg> 